<?xml version="1.0" encoding="UTF-8"?>
<svg width="12px" height="12px" viewBox="0 0 12 12" version="1.1" xmlns="http://www.w3.org/2000/svg" xmlns:xlink="http://www.w3.org/1999/xlink">
    <title>形状结合</title>
    <g id="全局" stroke="none" stroke-width="1" fill="none" fill-rule="evenodd" fill-opacity="0.9">
        <g id="二级页面框架_组件" transform="translate(-1051.000000, -1517.000000)" fill="#0061FF" stroke="#FFFFFF">
            <g id="鼠标释义备份" transform="translate(1048.933616, 1515.148039)">
                <path d="M6.84470781,1.62376567 L6.87560938,1.62563987 C6.97391925,1.63441972 7.07258569,1.65801989 7.16862439,1.69768025 C7.44403897,1.8114161 7.65438561,2.04204843 7.74235565,2.32674178 L7.74622644,2.33976567 L11.1421192,10.562343 C11.2284692,10.771442 11.2408835,11.0023085 11.1797407,11.2174242 L11.1342311,11.3443033 C10.9131713,11.8504169 10.3236808,12.0814987 9.81756715,11.8604389 L9.81756715,11.8604389 L6.78322644,10.5347657 L3.75049062,11.8604389 C3.24437698,12.0814987 2.65488645,11.8504169 2.43382666,11.3443033 C2.32516593,11.0955259 2.32231857,10.8132618 2.42593858,10.562343 L5.82122644,2.33976567 L5.82570213,2.32674178 C5.90110502,2.08271891 6.06641725,1.87841434 6.28554939,1.75339792 L6.39943338,1.69768025 C6.49547208,1.65801989 6.59413852,1.63441972 6.6924484,1.62563987 C6.70258529,1.62526746 6.71295672,1.62443542 6.72334996,1.62376567 L6.84470781,1.62376567 L6.84470781,1.62376567 Z" id="形状结合" transform="translate(6.784029, 6.784029) rotate(-45.000000) translate(-6.784029, -6.784029) "></path>
            </g>
        </g>
    </g>
</svg>