<?xml version="1.0" encoding="UTF-8"?>
<svg width="10px" height="11px" viewBox="0 0 10 11" version="1.1" xmlns="http://www.w3.org/2000/svg" xmlns:xlink="http://www.w3.org/1999/xlink">
    <title>形状</title>
    <g id="全局">
        <g id="二级页面框架_组件" transform="translate(-1009.000000, -1500.000000)">
            <g id="8图例说明备份-3" transform="translate(331.000000, 1243.000000)">
                <g id="代码下载" transform="translate(630.000000, 248.000000)">
                    <g id="logo-codepen" transform="translate(48.000000, 9.000000)">
                        <path d="M0.434782609,2.883 L0.125217391,2.58214286 C0.0450013695,2.66231879 2.05036146e-05,2.77039335 0,2.883 L0.434782609,2.883 Z M2.89,0.428571429 L2.89,0 C2.77363057,2.02985224e-05 2.66212612,0.0460225968 2.58043478,0.127714286 L2.89,0.428571429 L2.89,0.428571429 Z M7.39130435,2.18616071 L7.82608696,2.18616071 L7.39130435,2.18616071 Z M7.39130435,7.75758929 L7.82608696,7.75758929 L7.39130435,7.75758929 Z M7.39130435,2.14285714 C7.15118054,2.14285714 6.95652174,2.33473511 6.95652174,2.57142857 C6.95652174,2.80812204 7.15118054,3 7.39130435,3 L7.39130435,2.14285714 Z M9.56521739,4.32901786 L9.13043478,4.32901786 L9.56521739,4.32901786 Z M9.56521739,9.90044643 L10,9.90044643 L9.56521739,9.90044643 Z M3.04347826,8.42857143 C3.04347826,8.19187796 2.84881946,8 2.60869565,8 C2.36857185,8 2.17391304,8.19187796 2.17391304,8.42857143 L3.04347826,8.42857143 Z M3.91304348,0.428571429 C3.91304348,0.191877964 3.71838467,0 3.47826087,0 C3.23813707,0 3.04347826,0.191877964 3.04347826,0.428571429 L3.91304348,0.428571429 Z M3.47826087,3.42857143 L3.47826087,3.85714286 C3.71838467,3.85714286 3.91304348,3.66526489 3.91304348,3.42857143 L3.47826087,3.42857143 Z M0.434782609,3 C0.194658804,3 0,3.19187796 0,3.42857143 C0,3.66526489 0.194658804,3.85714286 0.434782609,3.85714286 L0.434782609,3 Z M0.744347826,3.18428571 L3.19956522,0.729428571 L2.58043478,0.127714286 L0.125217391,2.58214286 L0.744347826,3.18428571 Z M2.17391304,8.85714286 L5.65217391,8.85714286 L5.65217391,8 L2.17391304,8 L2.17391304,8.85714286 Z M2.89,0.857142857 L5.65217391,0.857142857 L5.65217391,0 L2.89,0 L2.89,0.857142857 Z M6.95652174,2.14285714 L6.95652174,7.14285714 L7.82608696,7.14285714 L7.82608696,2.14285714 L6.95652174,2.14285714 Z M0,2.80708791 L0,7.14285714 L0.869565217,7.14285714 L0.869565217,2.80708791 L0,2.80708791 Z M2.17391304,8 C1.45354163,8 0.869565217,7.42436611 0.869565217,6.71428571 L0,6.71428571 C0,7.89775304 0.973294022,8.85714286 2.17391304,8.85714286 L2.17391304,8 Z M5.65217391,8.85714286 C6.85279293,8.85714286 7.82608696,7.89775304 7.82608696,6.71428571 L6.95652174,6.71428571 C6.95652174,7.42436611 6.37254533,8 5.65217391,8 L5.65217391,8.85714286 Z M5.65217391,0.857142857 C6.37254533,0.857142857 6.95652174,1.43277675 6.95652174,2.14285714 L7.82608696,2.14285714 C7.82608696,0.959389822 6.85279293,0 5.65217391,0 L5.65217391,0.857142857 Z M4.34782609,11 L7.82608696,11 L7.82608696,10.1428571 L4.34782609,10.1428571 L4.34782609,11 Z M7.39130435,3 L7.82608696,3 L7.82608696,2.14285714 L7.39130435,2.14285714 L7.39130435,3 Z M9.13043478,4.28571429 L9.13043478,9.00156382 L10,9.00156382 L10,4.28571429 L9.13043478,4.28571429 Z M2.17391304,8.42857143 L2.17391304,8.85714286 L3.04347826,8.85714286 L3.04347826,8.42857143 L2.17391304,8.42857143 Z M4.34782609,10.1428571 C3.62745467,10.1428571 3.04347826,9.56722325 3.04347826,8.85714286 L2.17391304,8.85714286 C2.17391304,10.0406102 3.14720707,11 4.34782609,11 L4.34782609,10.1428571 L4.34782609,10.1428571 Z M7.82608696,11 C9.02670598,11 10,10.0406102 10,8.85714286 L9.13043478,8.85714286 C9.13043478,9.56722325 8.54645837,10.1428571 7.82608696,10.1428571 L7.82608696,11 L7.82608696,11 Z M7.82608696,3 C8.54645837,3 9.13043478,3.57563389 9.13043478,4.28571429 L10,4.28571429 C10,3.10224696 9.02670598,2.14285714 7.82608696,2.14285714 L7.82608696,3 L7.82608696,3 Z M3.04347826,0.428571429 L3.04347826,3.42857143 L3.91304348,3.42857143 L3.91304348,0.428571429 L3.04347826,0.428571429 Z M3.47826087,3 L0.434782609,3 L0.434782609,3.85714286 L3.47826087,3.85714286 L3.47826087,3 Z" id="形状"></path>
                    </g>
                </g>
            </g>
        </g>
    </g>
</svg>