<?xml version="1.0" standalone="no"?><!DOCTYPE svg PUBLIC "-//W3C//DTD SVG 1.1//EN" "http://www.w3.org/Graphics/SVG/1.1/DTD/svg11.dtd"><svg t="1646317304197" class="icon" viewBox="0 0 1024 1024" version="1.1" xmlns="http://www.w3.org/2000/svg" p-id="2560" data-spm-anchor-id="a313x.7781069.0.i2" xmlns:xlink="http://www.w3.org/1999/xlink" width="200" height="200"><defs><style type="text/css"></style></defs><path d="M864 640H448V96a32 32 0 0 0-32-32H160a32 32 0 0 0-32 32v736a128.14 128.14 0 0 0 128 128h608a32 32 0 0 0 32-32V672a32 32 0 0 0-32-32z m-32 64v64H448v-64zM192 832V128h64v704a127.23 127.23 0 0 0 17.18 64H256a64.07 64.07 0 0 1-64-64z m192 64a64.07 64.07 0 0 1-64-64V128h64v672a32 32 0 0 0 32 32h416v64z" p-id="2561"></path></svg>