<?xml version="1.0" encoding="UTF-8"?>
<svg width="12px" height="12px" viewBox="0 0 12 12" version="1.1" xmlns="http://www.w3.org/2000/svg" xmlns:xlink="http://www.w3.org/1999/xlink">
    <title>形状</title>
    <g id="全局" >
        <g id="二级页面框架_组件" transform="translate(-979.000000, -1500.000000)">
            <g id="8图例说明备份-3" transform="translate(331.000000, 1243.000000)">
                <g id="代码下载" transform="translate(630.000000, 248.000000)">
                    <g id="Copy" transform="translate(18.000000, 9.000000)">
                        <path d="M0.195063674,3.84877299 C0.0556094059,3.94328402 -0.0183371874,4.10778757 0.00390668167,4.27402591 L0.00390668167,7.72597409 C-0.0183371874,7.89221243 0.0556094059,8.05671598 0.195063674,8.15122701 L5.7466935,11.9223378 C5.89931399,12.0258874 6.10023518,12.0258874 6.25285567,11.9223378 L11.803588,8.15122701 C11.9402027,8.05952898 12.0147522,7.90044473 11.9974374,7.73756379 L11.9974374,4.26332772 C12.0150981,4.10014283 11.9405075,3.9406278 11.803588,3.84877299 L6.25285567,0.0776622424 C6.10023518,-0.0258874141 5.89931399,-0.0258874141 5.7466935,0.0776622424 L0.195063674,3.84877299 L0.195063674,3.84877299 Z M1.00456418,4.21696891 L5.6174606,1.08240026 L5.6174606,3.73020143 L2.95472447,5.54086949 L1.00456418,4.21696891 Z M6.38029367,3.73020143 L6.38029367,1.08240026 L10.994985,4.21696891 L9.0466196,5.54086949 L6.38119112,3.73109294 L6.38029367,3.73020143 Z M2.27894412,6 L0.766739748,7.02702591 L0.766739748,4.97297409 L2.27804667,6 L2.27894412,6 Z M11.2355018,4.97208258 L11.2355018,7.02791742 L9.7215025,6 L11.2346043,4.97208258 L11.2355018,4.97208258 Z M9.0466196,6.45913051 L10.9940875,7.78303109 L6.38119112,10.9175997 L6.38119112,8.26979857 L9.04572215,6.45913051 L9.0466196,6.45913051 Z M5.61835805,8.26890706 L5.61835805,10.9167082 L1.00546163,7.78303109 L2.95472447,6.45913051 L5.6192555,8.26890706 L5.61835805,8.26890706 Z M8.37083925,6 L5.99977459,7.61096859 L3.62960738,6 L5.99887714,4.38903141 L8.37083925,6 Z" id="形状"></path>
                    </g>
                </g>
            </g>
        </g>
    </g>
</svg>