<?xml version="1.0" encoding="UTF-8"?>
<svg width="16px" height="16px" viewBox="0 0 16 16" version="1.1" xmlns="http://www.w3.org/2000/svg" xmlns:xlink="http://www.w3.org/1999/xlink">
    <title>形状</title>
    <g id="品牌落地页" stroke="none" stroke-width="1" fill="none" fill-rule="evenodd">
        <g id="金融行业设计语言-2" transform="translate(-389.000000, -36.000000)" fill="#3888FF" fill-rule="nonzero">
            <g id="编组-5" transform="translate(136.555556, 27.000000)">
                <path d="M259.119955,10.2516181 C261.894465,10.2560624 264.214726,12.3611468 264.488005,15.122033 C264.761545,17.8829191 262.899181,20.4023451 260.179693,20.9507153 C257.459944,21.4993462 254.766792,19.898825 253.948781,17.2477171 C253.13077,14.5966093 254.453356,11.7569748 257.009086,10.6774443 C257.676901,10.3949609 258.394852,10.2501325 259.119955,10.2516181 M259.119955,9 C255.4333,9 252.444444,11.988787 252.444444,15.6753575 C252.444444,19.361928 255.4333,22.3507151 259.119955,22.3507151 C262.806611,22.3507151 265.795466,19.361928 265.795466,15.6753575 C265.795466,11.988787 262.806611,9 259.119955,9 Z M267.818981,24.9999988 C267.652886,25.0003246 267.493555,24.9342279 267.376467,24.8164252 L264.2056,21.6456304 C263.968567,21.3999981 263.971957,21.0096462 264.213162,20.768186 C264.454627,20.5267258 264.844988,20.523336 265.090366,20.760624 L268.261233,23.9314189 C268.440109,24.110409 268.493618,24.3794908 268.39683,24.6132962 C268.300242,24.847273 268.072115,24.9999375 267.818981,24.9999988 L267.818981,24.9999988 Z" id="形状"></path>
            </g>
        </g>
    </g>
</svg>